<?xml version="1.0" encoding="UTF-8" standalone="no"?>
<!-- Created with Inkscape (http://www.inkscape.org/) -->

<svg
   xmlns:dc="http://purl.org/dc/elements/1.1/"
   xmlns:cc="http://creativecommons.org/ns#"
   xmlns:rdf="http://www.w3.org/1999/02/22-rdf-syntax-ns#"
   xmlns:svg="http://www.w3.org/2000/svg"
   xmlns="http://www.w3.org/2000/svg"
   xmlns:sodipodi="http://sodipodi.sourceforge.net/DTD/sodipodi-0.dtd"
   xmlns:inkscape="http://www.inkscape.org/namespaces/inkscape"
   version="1.1"
   id="svg815"
   xml:space="preserve"
   width="682.66669"
   height="682.66669"
   viewBox="0 0 682.66669 682.66669"
   sodipodi:docname="virusbreak_twitter.svg"
   inkscape:version="0.92.4 (5da689c313, 2019-01-14)"><metadata
     id="metadata821"><rdf:RDF><cc:Work
         rdf:about=""><dc:format>image/svg+xml</dc:format><dc:type
           rdf:resource="http://purl.org/dc/dcmitype/StillImage" /><dc:title /></cc:Work></rdf:RDF></metadata><defs
     id="defs819"><clipPath
   clipPathUnits="userSpaceOnUse"
   id="clipPath831"><path
     d="M 0,512 H 512 V 0 H 0 Z"
     id="path829"
     inkscape:connector-curvature="0" /></clipPath>















	
</defs><sodipodi:namedview
     pagecolor="#ffffff"
     bordercolor="#666666"
     borderopacity="1"
     objecttolerance="10"
     gridtolerance="10"
     guidetolerance="10"
     inkscape:pageopacity="0"
     inkscape:pageshadow="2"
     inkscape:window-width="1920"
     inkscape:window-height="1017"
     id="namedview817"
     showgrid="false"
     inkscape:zoom="1.2421875"
     inkscape:cx="353.45851"
     inkscape:cy="341.33334"
     inkscape:window-x="-8"
     inkscape:window-y="-8"
     inkscape:window-maximized="1"
     inkscape:current-layer="g823" /><g
     id="g823"
     inkscape:groupmode="layer"
     inkscape:label="Twitter-Icon-Circle"
     transform="matrix(1.3333333,0,0,-1.3333333,0,682.66667)"><path
   id="path815"
   d="m 477.87891,295.46852 -40.92584,15.01504 c -4.63322,15.44404 -11.32564,29.94427 -19.5633,43.41491 l 6.69327,14.41443 c 7.37881,15.95883 4.03174,34.92067 -8.40928,47.3617 -12.44103,12.44103 -31.40288,15.78724 -47.36085,8.40843 l -14.41529,-6.69242 c -13.46977,8.23682 -27.97086,14.92923 -43.41491,19.56244 l -15.01503,40.9267 c -6.09182,16.55944 -21.79325,27.54186 -39.46809,27.54186 -17.58905,0 -33.37628,-10.98242 -39.46809,-27.54186 l -15.01504,-40.9267 c -15.44404,-4.63321 -29.94427,-11.32562 -43.41491,-19.56244 l -14.41443,6.69242 c -16.04463,7.37881 -34.92067,4.0326 -47.3617,-8.40843 C 83.884392,403.23357 80.538178,384.27173 87.916993,368.3129 L 94.60941,353.89847 C 86.372595,340.42783 79.680179,325.9276 75.046972,310.48356 L 34.120266,295.46852 C 17.560831,289.37671 6.578407,273.67527 6.578407,256.00043 c 0,-17.58904 10.982424,-33.37627 27.541859,-39.46809 L 75.046972,201.51731 C 79.680179,186.07326 86.372595,171.57304 94.60941,158.1024 l -6.692417,-14.41529 c -7.378815,-15.95884 -4.032601,-34.91982 8.408427,-47.360845 8.06522,-8.065215 18.79025,-12.270282 29.68686,-12.270282 6.00602,0 12.01204,1.286992 17.67484,3.861001 l 14.41443,6.69327 C 171.57219,86.372586 186.07242,79.681023 201.51646,75.04695 L 216.5315,34.121116 c 6.09181,-16.560297 21.79325,-27.5427236 39.46809,-27.5427236 17.58904,0 33.37627,10.9824266 39.46809,27.5427236 l 15.01503,40.925834 c 15.44405,4.633219 29.94427,11.325636 43.41491,19.563304 l 14.41529,-6.69327 c 5.66282,-2.574009 11.66882,-3.861001 17.67484,-3.861001 10.89663,0 21.62165,4.290007 29.68687,12.270282 12.44103,12.441025 15.78723,31.402875 8.40927,47.360845 l -6.69412,14.41529 c 8.23766,13.46977 14.92923,27.97086 19.5633,43.41491 l 40.92584,15.01503 c 16.56029,6.09182 27.54271,21.79325 27.54271,39.46809 -8.5e-4,17.58905 -10.98242,33.37628 -27.54271,39.46809 z"
   inkscape:connector-curvature="0"
   style="stroke-width:0.85800201"
   sodipodi:nodetypes="ccccsccccsccccsccccsccccssccccsccccsccccccc" /><g
   id="g837"
   transform="matrix(1.1526755,0,0,1.1526755,205.75028,168.36094)"><path
     d="m 0,0 c 88.683,0 137.18,73.471 137.18,137.179 0,2.088 -0.043,4.166 -0.138,6.234 9.413,6.805 17.596,15.296 24.052,24.963 -8.639,-3.837 -17.936,-6.424 -27.688,-7.59 9.954,5.968 17.596,15.413 21.201,26.671 -9.318,-5.523 -19.632,-9.54 -30.614,-11.703 -8.799,9.371 -21.328,15.233 -35.194,15.233 -26.628,0 -48.221,-21.593 -48.221,-48.21 0,-3.785 0.424,-7.464 1.251,-10.994 -40.069,2.015 -75.602,21.201 -99.379,50.374 -4.144,-7.124 -6.529,-15.403 -6.529,-24.233 0,-16.727 8.512,-31.494 21.455,-40.132 -7.908,0.243 -15.339,2.416 -21.837,6.031 -0.011,-0.201 -0.011,-0.403 -0.011,-0.615 0,-23.353 16.622,-42.847 38.681,-47.267 -4.049,-1.102 -8.31,-1.696 -12.71,-1.696 -3.106,0 -6.127,0.307 -9.063,0.869 6.138,-19.155 23.936,-33.094 45.041,-33.487 -16.505,-12.932 -37.292,-20.638 -59.881,-20.638 -3.891,0 -7.728,0.222 -11.502,0.667 C -52.567,7.982 -27.232,0 0,0"
     style="fill:#ffffff;fill-opacity:1;fill-rule:nonzero;stroke:none"
     id="path839"
     inkscape:connector-curvature="0" /></g><text
   xml:space="preserve"
   style="font-style:normal;font-weight:normal;font-size:44.19171906px;line-height:1.25;font-family:sans-serif;letter-spacing:0px;word-spacing:0px;fill:#000000;fill-opacity:1;stroke:none;stroke-width:1.10479295"
   x="92.676231"
   y="-110.90963"
   id="text931"
   transform="scale(1,-1)"><tspan
     sodipodi:role="line"
     id="tspan929"
     x="92.676231"
     y="-110.90963"
     style="font-style:normal;font-variant:normal;font-weight:normal;font-stretch:normal;font-size:44.19171906px;font-family:Audiowide;-inkscape-font-specification:'Audiowide, Normal';font-variant-ligatures:normal;font-variant-caps:normal;font-variant-numeric:normal;font-feature-settings:normal;text-align:start;writing-mode:lr-tb;text-anchor:start;fill:#ff0000;stroke-width:1.10479295">@virus_break</tspan></text>

</g></svg>